# xmcd
#
# Track frame offsets:
#	150
#	21695
#	41275
#	61400
#	81745
#	98750
#	119680
#	141187
#	159802
#	178917
#	198745
#	215480
#
# Disc length: 3155 seconds
#
# Revision: 1
# Processed by: cddbd v1.5.1PL0 Copyright (c) Steve Scherf et al.
# Submitted via: CDex 1.50Beta5
#
DISCID=b50c510c
DTITLE=Various Artist - THE MOON 〜Total Solar Eclipse〜
DYEAR=1900
DGENRE=
TTITLE0=山形由美/虹色の航海
TTITLE1=山形由美/ロミオとジュリエット
TTITLE2=山形由美/夏の夜の夢
TTITLE3=山形由美/Rosa Rossa
TTITLE4=羽田健太郎/みじかくも美しく燃え
TTITLE5=羽田健太郎/パスピエ
TTITLE6=羽田健太郎/エリーゼのために
TTITLE7=岡崎由美/小舟にて
TTITLE8=岡崎由美/オーロラ(朝やけ)
TTITLE9=岡崎由美/月の光
TTITLE10=山形由美/ジムノペディ
TTITLE11=山形由美/タイスの冥想曲
EXTD=
EXTT0=
EXTT1=
EXTT2=
EXTT3=
EXTT4=
EXTT5=
EXTT6=
EXTT7=
EXTT8=
EXTT9=
EXTT10=
EXTT11=
PLAYORDER=
